<?xml version="1.0" encoding="utf-8"?>
<!-- Generator: Adobe Illustrator 26.0.3, SVG Export Plug-In . SVG Version: 6.00 Build 0)  -->
<svg version="1.1" id="Layer_1" xmlns="http://www.w3.org/2000/svg" xmlns:xlink="http://www.w3.org/1999/xlink" x="0px" y="0px"
	 viewBox="0 0 40 40" style="enable-background:new 0 0 40 40;" xml:space="preserve">
<style type="text/css">
	.st0{fill:#190E4F;}
</style>
<path class="st0" d="M32.8,5.3H7c-1.2,0-2.2,1-2.2,2.2v25.9c0,1.2,1,2.2,2.2,2.2h25.8c1.2,0,2.2-1,2.2-2.2V7.5
	C35,6.3,34,5.3,32.8,5.3z M13.7,31.1H9.2V16.6h4.5V31.1z M13.3,13.9c-0.5,0.5-1.1,0.8-1.8,0.8c-1.4,0-2.6-1.2-2.6-2.6
	s1.2-2.6,2.6-2.6s2.6,1.2,2.6,2.6C14.1,12.8,13.8,13.4,13.3,13.9z M30.5,31.1h-4.5v-7c0-1.7,0-3.8-2.3-3.8c-2.3,0-2.7,1.8-2.7,3.7
	v7.1h-4.5V16.6h4.3v2h0.1c0.9-1.5,2.5-2.4,4.2-2.3c4.5,0,5.4,3,5.4,6.9V31.1z"/>
</svg>
